<mxfile host="app.diagrams.net" modified="2023-07-10T17:42:09.997Z" agent="Mozilla/5.0 (Windows NT 10.0; Win64; x64; rv:109.0) Gecko/20100101 Firefox/114.0" etag="XC68L4mv3l808dS_DvNz" version="21.6.1" type="github">
  <diagram name="Página-1" id="wPR8BReo_pL5dCqHKqA2">
    <mxGraphModel dx="819" dy="442" grid="1" gridSize="10" guides="1" tooltips="1" connect="1" arrows="1" fold="1" page="1" pageScale="1" pageWidth="827" pageHeight="1169" background="none" math="0" shadow="0">
      <root>
        <mxCell id="0" />
        <mxCell id="1" parent="0" />
        <mxCell id="CmFH8DSRsuY0BOtl0wdy-4" style="edgeStyle=orthogonalEdgeStyle;rounded=0;orthogonalLoop=1;jettySize=auto;html=1;exitX=1;exitY=0.5;exitDx=0;exitDy=0;entryX=0;entryY=0.5;entryDx=0;entryDy=0;endArrow=none;endFill=0;" edge="1" parent="1" source="CmFH8DSRsuY0BOtl0wdy-1" target="CmFH8DSRsuY0BOtl0wdy-2">
          <mxGeometry relative="1" as="geometry" />
        </mxCell>
        <mxCell id="CmFH8DSRsuY0BOtl0wdy-1" value="Usuario" style="rounded=0;whiteSpace=wrap;html=1;" vertex="1" parent="1">
          <mxGeometry x="250" y="180" width="100" height="60" as="geometry" />
        </mxCell>
        <mxCell id="CmFH8DSRsuY0BOtl0wdy-5" style="edgeStyle=orthogonalEdgeStyle;rounded=0;orthogonalLoop=1;jettySize=auto;html=1;exitX=1;exitY=0.5;exitDx=0;exitDy=0;entryX=0;entryY=0.5;entryDx=0;entryDy=0;endArrow=none;endFill=0;" edge="1" parent="1" source="CmFH8DSRsuY0BOtl0wdy-2" target="CmFH8DSRsuY0BOtl0wdy-3">
          <mxGeometry relative="1" as="geometry" />
        </mxCell>
        <mxCell id="CmFH8DSRsuY0BOtl0wdy-2" value="Possui" style="shape=rhombus;perimeter=rhombusPerimeter;whiteSpace=wrap;html=1;align=center;" vertex="1" parent="1">
          <mxGeometry x="380" y="180" width="120" height="60" as="geometry" />
        </mxCell>
        <mxCell id="CmFH8DSRsuY0BOtl0wdy-13" style="edgeStyle=orthogonalEdgeStyle;rounded=0;orthogonalLoop=1;jettySize=auto;html=1;exitX=0.5;exitY=0;exitDx=0;exitDy=0;entryX=0.5;entryY=1;entryDx=0;entryDy=0;endArrow=none;endFill=0;" edge="1" parent="1" source="CmFH8DSRsuY0BOtl0wdy-3" target="CmFH8DSRsuY0BOtl0wdy-12">
          <mxGeometry relative="1" as="geometry" />
        </mxCell>
        <mxCell id="CmFH8DSRsuY0BOtl0wdy-42" style="edgeStyle=orthogonalEdgeStyle;rounded=0;orthogonalLoop=1;jettySize=auto;html=1;exitX=0.5;exitY=1;exitDx=0;exitDy=0;entryX=0.5;entryY=0;entryDx=0;entryDy=0;endArrow=none;endFill=0;" edge="1" parent="1" source="CmFH8DSRsuY0BOtl0wdy-3" target="CmFH8DSRsuY0BOtl0wdy-41">
          <mxGeometry relative="1" as="geometry" />
        </mxCell>
        <mxCell id="CmFH8DSRsuY0BOtl0wdy-46" style="edgeStyle=orthogonalEdgeStyle;rounded=0;orthogonalLoop=1;jettySize=auto;html=1;exitX=0;exitY=0.75;exitDx=0;exitDy=0;entryX=1;entryY=0.5;entryDx=0;entryDy=0;endArrow=none;endFill=0;" edge="1" parent="1" source="CmFH8DSRsuY0BOtl0wdy-3" target="CmFH8DSRsuY0BOtl0wdy-8">
          <mxGeometry relative="1" as="geometry">
            <Array as="points">
              <mxPoint x="510" y="225" />
            </Array>
          </mxGeometry>
        </mxCell>
        <mxCell id="CmFH8DSRsuY0BOtl0wdy-59" style="edgeStyle=orthogonalEdgeStyle;rounded=0;orthogonalLoop=1;jettySize=auto;html=1;exitX=1;exitY=0.5;exitDx=0;exitDy=0;entryX=0.5;entryY=0;entryDx=0;entryDy=0;endArrow=none;endFill=0;" edge="1" parent="1" source="CmFH8DSRsuY0BOtl0wdy-3" target="CmFH8DSRsuY0BOtl0wdy-57">
          <mxGeometry relative="1" as="geometry" />
        </mxCell>
        <mxCell id="CmFH8DSRsuY0BOtl0wdy-3" value="VinculoProfissional" style="rounded=0;whiteSpace=wrap;html=1;" vertex="1" parent="1">
          <mxGeometry x="520" y="180" width="120" height="60" as="geometry" />
        </mxCell>
        <mxCell id="CmFH8DSRsuY0BOtl0wdy-6" value="&lt;div&gt;Instituição&lt;/div&gt;" style="whiteSpace=wrap;html=1;align=center;" vertex="1" parent="1">
          <mxGeometry x="250" y="270" width="100" height="40" as="geometry" />
        </mxCell>
        <mxCell id="CmFH8DSRsuY0BOtl0wdy-51" value="" style="edgeStyle=orthogonalEdgeStyle;rounded=0;orthogonalLoop=1;jettySize=auto;html=1;endArrow=none;endFill=0;" edge="1" parent="1" source="CmFH8DSRsuY0BOtl0wdy-8" target="CmFH8DSRsuY0BOtl0wdy-6">
          <mxGeometry relative="1" as="geometry" />
        </mxCell>
        <mxCell id="CmFH8DSRsuY0BOtl0wdy-8" value="Está Vinculado" style="shape=rhombus;perimeter=rhombusPerimeter;whiteSpace=wrap;html=1;align=center;" vertex="1" parent="1">
          <mxGeometry x="380" y="260" width="120" height="60" as="geometry" />
        </mxCell>
        <mxCell id="CmFH8DSRsuY0BOtl0wdy-15" style="edgeStyle=orthogonalEdgeStyle;rounded=0;orthogonalLoop=1;jettySize=auto;html=1;exitX=0.5;exitY=0;exitDx=0;exitDy=0;entryX=0.5;entryY=1;entryDx=0;entryDy=0;endArrow=none;endFill=0;" edge="1" parent="1" source="CmFH8DSRsuY0BOtl0wdy-12" target="CmFH8DSRsuY0BOtl0wdy-14">
          <mxGeometry relative="1" as="geometry" />
        </mxCell>
        <mxCell id="CmFH8DSRsuY0BOtl0wdy-12" value="Possui" style="shape=rhombus;perimeter=rhombusPerimeter;whiteSpace=wrap;html=1;align=center;" vertex="1" parent="1">
          <mxGeometry x="520" y="90" width="120" height="60" as="geometry" />
        </mxCell>
        <mxCell id="CmFH8DSRsuY0BOtl0wdy-14" value="&lt;div&gt;Profissão (CBO)&lt;/div&gt;" style="whiteSpace=wrap;html=1;align=center;" vertex="1" parent="1">
          <mxGeometry x="530" y="20" width="100" height="40" as="geometry" />
        </mxCell>
        <mxCell id="CmFH8DSRsuY0BOtl0wdy-22" value="" style="edgeStyle=orthogonalEdgeStyle;rounded=0;orthogonalLoop=1;jettySize=auto;html=1;endArrow=none;endFill=0;" edge="1" parent="1" source="CmFH8DSRsuY0BOtl0wdy-20">
          <mxGeometry relative="1" as="geometry">
            <mxPoint x="260" y="180" as="targetPoint" />
            <Array as="points">
              <mxPoint x="260" y="182" />
            </Array>
          </mxGeometry>
        </mxCell>
        <mxCell id="CmFH8DSRsuY0BOtl0wdy-20" value="" style="shape=waypoint;sketch=0;fillStyle=solid;size=6;pointerEvents=1;points=[];fillColor=none;resizable=0;rotatable=0;perimeter=centerPerimeter;snapToPoint=1;" vertex="1" parent="1">
          <mxGeometry x="250" y="140" width="20" height="20" as="geometry" />
        </mxCell>
        <mxCell id="CmFH8DSRsuY0BOtl0wdy-23" value="id" style="text;html=1;align=center;verticalAlign=middle;resizable=0;points=[];autosize=1;strokeColor=none;fillColor=none;" vertex="1" parent="1">
          <mxGeometry x="245" y="120" width="30" height="30" as="geometry" />
        </mxCell>
        <mxCell id="CmFH8DSRsuY0BOtl0wdy-24" value="1:*" style="text;html=1;align=center;verticalAlign=middle;resizable=0;points=[];autosize=1;strokeColor=none;fillColor=none;" vertex="1" parent="1">
          <mxGeometry x="480" y="180" width="40" height="30" as="geometry" />
        </mxCell>
        <mxCell id="CmFH8DSRsuY0BOtl0wdy-25" value="1:1" style="text;html=1;align=center;verticalAlign=middle;resizable=0;points=[];autosize=1;strokeColor=none;fillColor=none;" vertex="1" parent="1">
          <mxGeometry x="350" y="180" width="40" height="30" as="geometry" />
        </mxCell>
        <mxCell id="CmFH8DSRsuY0BOtl0wdy-26" value="1" style="text;html=1;align=center;verticalAlign=middle;resizable=0;points=[];autosize=1;strokeColor=none;fillColor=none;" vertex="1" parent="1">
          <mxGeometry x="350" y="260" width="30" height="30" as="geometry" />
        </mxCell>
        <mxCell id="CmFH8DSRsuY0BOtl0wdy-27" value="0:*" style="text;html=1;align=center;verticalAlign=middle;resizable=0;points=[];autosize=1;strokeColor=none;fillColor=none;" vertex="1" parent="1">
          <mxGeometry x="470" y="240" width="40" height="30" as="geometry" />
        </mxCell>
        <mxCell id="CmFH8DSRsuY0BOtl0wdy-28" value="0:*" style="text;html=1;align=center;verticalAlign=middle;resizable=0;points=[];autosize=1;strokeColor=none;fillColor=none;" vertex="1" parent="1">
          <mxGeometry x="580" y="150" width="40" height="30" as="geometry" />
        </mxCell>
        <mxCell id="CmFH8DSRsuY0BOtl0wdy-29" value="1:1" style="text;html=1;align=center;verticalAlign=middle;resizable=0;points=[];autosize=1;strokeColor=none;fillColor=none;" vertex="1" parent="1">
          <mxGeometry x="580" y="60" width="40" height="30" as="geometry" />
        </mxCell>
        <mxCell id="CmFH8DSRsuY0BOtl0wdy-40" value="Ocorrência" style="whiteSpace=wrap;html=1;align=center;" vertex="1" parent="1">
          <mxGeometry x="530" y="360" width="100" height="40" as="geometry" />
        </mxCell>
        <mxCell id="CmFH8DSRsuY0BOtl0wdy-43" style="edgeStyle=orthogonalEdgeStyle;rounded=0;orthogonalLoop=1;jettySize=auto;html=1;exitX=0.5;exitY=1;exitDx=0;exitDy=0;entryX=0.5;entryY=0;entryDx=0;entryDy=0;endArrow=none;endFill=0;" edge="1" parent="1" source="CmFH8DSRsuY0BOtl0wdy-41" target="CmFH8DSRsuY0BOtl0wdy-40">
          <mxGeometry relative="1" as="geometry" />
        </mxCell>
        <mxCell id="CmFH8DSRsuY0BOtl0wdy-41" value="Gera uma" style="shape=rhombus;perimeter=rhombusPerimeter;whiteSpace=wrap;html=1;align=center;" vertex="1" parent="1">
          <mxGeometry x="520" y="270" width="120" height="60" as="geometry" />
        </mxCell>
        <mxCell id="CmFH8DSRsuY0BOtl0wdy-56" value="0:*" style="text;html=1;align=center;verticalAlign=middle;resizable=0;points=[];autosize=1;strokeColor=none;fillColor=none;" vertex="1" parent="1">
          <mxGeometry x="580" y="330" width="40" height="30" as="geometry" />
        </mxCell>
        <mxCell id="CmFH8DSRsuY0BOtl0wdy-58" style="edgeStyle=orthogonalEdgeStyle;rounded=0;orthogonalLoop=1;jettySize=auto;html=1;exitX=0.5;exitY=1;exitDx=0;exitDy=0;entryX=1;entryY=0.5;entryDx=0;entryDy=0;endArrow=none;endFill=0;" edge="1" parent="1" source="CmFH8DSRsuY0BOtl0wdy-57" target="CmFH8DSRsuY0BOtl0wdy-40">
          <mxGeometry relative="1" as="geometry" />
        </mxCell>
        <mxCell id="CmFH8DSRsuY0BOtl0wdy-57" value="Atende" style="shape=rhombus;perimeter=rhombusPerimeter;whiteSpace=wrap;html=1;align=center;" vertex="1" parent="1">
          <mxGeometry x="650" y="270" width="120" height="60" as="geometry" />
        </mxCell>
        <mxCell id="CmFH8DSRsuY0BOtl0wdy-62" value="1:1" style="text;html=1;align=center;verticalAlign=middle;resizable=0;points=[];autosize=1;strokeColor=none;fillColor=none;" vertex="1" parent="1">
          <mxGeometry x="580" y="240" width="40" height="30" as="geometry" />
        </mxCell>
        <mxCell id="CmFH8DSRsuY0BOtl0wdy-63" value="&lt;div&gt;0:*&lt;/div&gt;" style="text;html=1;align=center;verticalAlign=middle;resizable=0;points=[];autosize=1;strokeColor=none;fillColor=none;" vertex="1" parent="1">
          <mxGeometry x="640" y="180" width="40" height="30" as="geometry" />
        </mxCell>
        <mxCell id="CmFH8DSRsuY0BOtl0wdy-64" value="0:*" style="text;html=1;align=center;verticalAlign=middle;resizable=0;points=[];autosize=1;strokeColor=none;fillColor=none;" vertex="1" parent="1">
          <mxGeometry x="630" y="380" width="40" height="30" as="geometry" />
        </mxCell>
      </root>
    </mxGraphModel>
  </diagram>
</mxfile>
